# xmcd CD database file
#
# Track frame offsets:
#	150
#	19767
#	49622
#	55635
#	65192
#	68990
#	73122
#	87917
#	106860
#	169332
#	184137
#	203110
#	218200
#	241240
#	252000
#
# Disc length: 4137 seconds
#
# Revision: 0
# Processed by: cddbd v1.5.2PL0 Copyright (c) Steve Scherf et al.
# Submitted via: CDex 1.70beta2
#
DISCID=d710270f
DTITLE=Benny Goodman Orchestra - Carnegie Hall Concert 1
DYEAR=1938
DGENRE=Jazz
TTITLE0=Don't Be That Way (live)
TTITLE1=One O'clock Jump (live)
TTITLE2=Sensation Rag (live)
TTITLE3=I'm Coming Virginia (live)
TTITLE4=When My Baby Smiles At Me (live)
TTITLE5=Shine (live)
TTITLE6=Blue Reverie (live)
TTITLE7=Life Goes To A Party (live)
TTITLE8=Honeysuckle Rose (live)
TTITLE9=Body And Soul (live)
TTITLE10=Avalon (live)
TTITLE11=The Man I Love (live)
TTITLE12=I Got Rhythm (live)
TTITLE13=Blue Skies (live)
TTITLE14=Sing Sing Sing (live)
EXTD=YEAR: 1938
EXTT0=
EXTT1=
EXTT2=
EXTT3=
EXTT4=
EXTT5=
EXTT6=
EXTT7=
EXTT8=
EXTT9=
EXTT10=
EXTT11=
EXTT12=
EXTT13=
EXTT14=
PLAYORDER=
